<svg id="visual" viewBox="0 0 1000 900" width="1000" height="900" xmlns="http://www.w3.org/2000/svg" xmlns:xlink="http://www.w3.org/1999/xlink" version="1.1"><rect x="0" y="0" width="1000" height="900" fill="#e6faed"></rect><defs><linearGradient id="grad1_0" x1="10%" y1="100%" x2="100%" y2="0%"><stop offset="27.777777777777775%" stop-color="#e6faed" stop-opacity="1"></stop><stop offset="72.22222222222223%" stop-color="#e6faed" stop-opacity="1"></stop></linearGradient></defs><defs><linearGradient id="grad2_0" x1="0%" y1="100%" x2="90%" y2="0%"><stop offset="27.777777777777775%" stop-color="#e6faed" stop-opacity="1"></stop><stop offset="72.22222222222223%" stop-color="#e6faed" stop-opacity="1"></stop></linearGradient></defs><g transform="translate(1000, 900)"><path d="M-437.2 0C-426.3 -36.5 -415.3 -72.9 -401.8 -107.7C-388.3 -142.4 -372.4 -175.5 -350.7 -202.5C-329.1 -229.5 -301.9 -250.4 -280.7 -280.7C-259.6 -311.1 -244.5 -350.8 -217.5 -376.7C-190.5 -402.6 -151.4 -414.6 -113.2 -422.3C-74.9 -430.1 -37.5 -433.7 0 -437.2L0 0Z" fill="#d3eee2"></path></g><g transform="translate(0, 0)"><path d="M437.2 0C400.7 31.2 364.1 62.4 343.9 92.1C323.7 121.8 319.9 150 314.4 181.5C308.8 213 301.6 247.8 287.8 287.8C274 327.7 253.7 372.8 218.6 378.7C183.6 384.5 133.9 351.3 95 354.5C56.1 357.7 28.1 397.5 0 437.2L0 0Z" fill="#d3eee2"></path></g></svg>