<svg id="visual" viewBox="0 0 1920 1800" width="1920" height="1800" xmlns="http://www.w3.org/2000/svg" xmlns:xlink="http://www.w3.org/1999/xlink" version="1.1"><rect x="0" y="0" width="1920" height="1800" fill="#e6faed"></rect><defs><linearGradient id="grad1_0" x1="6.3%" y1="100%" x2="100%" y2="0%"><stop offset="28.666666666666668%" stop-color="#e6faed" stop-opacity="1"></stop><stop offset="71.33333333333333%" stop-color="#e6faed" stop-opacity="1"></stop></linearGradient></defs><defs><linearGradient id="grad2_0" x1="0%" y1="100%" x2="93.8%" y2="0%"><stop offset="28.666666666666668%" stop-color="#e6faed" stop-opacity="1"></stop><stop offset="71.33333333333333%" stop-color="#e6faed" stop-opacity="1"></stop></linearGradient></defs><g transform="translate(1920, 1800)"><path d="M-855.3 0C-835.1 -69.6 -815 -139.3 -796.9 -213.5C-778.8 -287.8 -762.9 -366.7 -709.3 -409.5C-655.7 -452.3 -564.5 -459.2 -519 -519C-473.6 -578.9 -473.8 -691.7 -427.7 -740.7C-381.5 -789.8 -288.9 -774.9 -209.9 -783.4C-130.9 -791.8 -65.4 -823.6 0 -855.3L0 0Z" fill="#d3eee2"></path></g><g transform="translate(0, 0)"><path d="M855.3 0C842.6 70.3 829.9 140.6 819.1 219.5C808.3 298.4 799.5 385.9 740.7 427.7C682 469.4 573.2 465.4 515.5 515.5C457.8 565.5 451.2 669.7 400.5 693.7C349.8 717.7 255 661.6 180.9 675.2C106.8 688.8 53.4 772.1 0 855.3L0 0Z" fill="#d3eee2"></path></g></svg>