<svg id="visual" viewBox="0 0 600 900" width="600" height="900" xmlns="http://www.w3.org/2000/svg" xmlns:xlink="http://www.w3.org/1999/xlink" version="1.1"><rect x="0" y="0" width="600" height="900" fill="#e6faed"></rect><defs><linearGradient id="grad1_0" x1="0%" y1="100%" x2="100%" y2="0%"><stop offset="30%" stop-color="#e6faed" stop-opacity="1"></stop><stop offset="70%" stop-color="#e6faed" stop-opacity="1"></stop></linearGradient></defs><defs><linearGradient id="grad2_0" x1="0%" y1="100%" x2="100%" y2="0%"><stop offset="30%" stop-color="#e6faed" stop-opacity="1"></stop><stop offset="70%" stop-color="#e6faed" stop-opacity="1"></stop></linearGradient></defs><g transform="translate(600, 900)"><path d="M-351.5 0C-357.3 -35.4 -363 -70.9 -339.6 -91C-316.2 -111.1 -263.6 -115.9 -248.5 -143.5C-233.5 -171.1 -255.9 -221.5 -245.4 -245.4C-234.9 -269.3 -191.5 -266.7 -161.5 -279.7C-131.5 -292.8 -114.8 -321.6 -90.1 -336.1C-65.4 -350.7 -32.7 -351.1 0 -351.5L0 0Z" fill="#d3eee2"></path></g><g transform="translate(0, 0)"><path d="M351.5 0C314 20.5 276.5 41 276.3 74C276 107 313.1 152.5 304.4 175.8C295.7 199 241.2 199.9 207.9 207.9C174.5 215.9 162.4 230.9 147 254.6C131.6 278.3 113 310.8 88 328.4C63 346 31.5 348.8 0 351.5L0 0Z" fill="#d3eee2"></path></g></svg>