<svg id="visual" viewBox="0 0 1920 1080" width="1920" height="1080" xmlns="http://www.w3.org/2000/svg" xmlns:xlink="http://www.w3.org/1999/xlink" version="1.1"><rect x="0" y="0" width="1920" height="1080" fill="#e6faed"></rect><path d="M1021 1080L1019.3 1054.3C1017.7 1028.7 1014.3 977.3 1010.2 925.8C1006 874.3 1001 822.7 1005 771.2C1009 719.7 1022 668.3 1007 617C992 565.7 949 514.3 952.5 463C956 411.7 1006 360.3 1034.7 308.8C1063.3 257.3 1070.7 205.7 1042.7 154.2C1014.7 102.7 951.3 51.3 919.7 25.7L888 0L1920 0L1920 25.7C1920 51.3 1920 102.7 1920 154.2C1920 205.7 1920 257.3 1920 308.8C1920 360.3 1920 411.7 1920 463C1920 514.3 1920 565.7 1920 617C1920 668.3 1920 719.7 1920 771.2C1920 822.7 1920 874.3 1920 925.8C1920 977.3 1920 1028.7 1920 1054.3L1920 1080Z" fill="#e6faed"></path><path d="M997 1080L1003.2 1054.3C1009.3 1028.7 1021.7 977.3 1027.5 925.8C1033.3 874.3 1032.7 822.7 1035.2 771.2C1037.7 719.7 1043.3 668.3 1059.2 617C1075 565.7 1101 514.3 1127.2 463C1153.3 411.7 1179.7 360.3 1168.3 308.8C1157 257.3 1108 205.7 1083.8 154.2C1059.7 102.7 1060.3 51.3 1060.7 25.7L1061 0L1920 0L1920 25.7C1920 51.3 1920 102.7 1920 154.2C1920 205.7 1920 257.3 1920 308.8C1920 360.3 1920 411.7 1920 463C1920 514.3 1920 565.7 1920 617C1920 668.3 1920 719.7 1920 771.2C1920 822.7 1920 874.3 1920 925.8C1920 977.3 1920 1028.7 1920 1054.3L1920 1080Z" fill="#d2f0de"></path><path d="M1294 1080L1278.8 1054.3C1263.7 1028.7 1233.3 977.3 1252.8 925.8C1272.3 874.3 1341.7 822.7 1341.8 771.2C1342 719.7 1273 668.3 1255.5 617C1238 565.7 1272 514.3 1282.7 463C1293.3 411.7 1280.7 360.3 1267.8 308.8C1255 257.3 1242 205.7 1265.2 154.2C1288.3 102.7 1347.7 51.3 1377.3 25.7L1407 0L1920 0L1920 25.7C1920 51.3 1920 102.7 1920 154.2C1920 205.7 1920 257.3 1920 308.8C1920 360.3 1920 411.7 1920 463C1920 514.3 1920 565.7 1920 617C1920 668.3 1920 719.7 1920 771.2C1920 822.7 1920 874.3 1920 925.8C1920 977.3 1920 1028.7 1920 1054.3L1920 1080Z" fill="#bee6d0"></path><path d="M1592 1080L1591.2 1054.3C1590.3 1028.7 1588.7 977.3 1584.7 925.8C1580.7 874.3 1574.3 822.7 1576.5 771.2C1578.7 719.7 1589.3 668.3 1572.5 617C1555.7 565.7 1511.3 514.3 1510.7 463C1510 411.7 1553 360.3 1557.2 308.8C1561.3 257.3 1526.7 205.7 1504.8 154.2C1483 102.7 1474 51.3 1469.5 25.7L1465 0L1920 0L1920 25.7C1920 51.3 1920 102.7 1920 154.2C1920 205.7 1920 257.3 1920 308.8C1920 360.3 1920 411.7 1920 463C1920 514.3 1920 565.7 1920 617C1920 668.3 1920 719.7 1920 771.2C1920 822.7 1920 874.3 1920 925.8C1920 977.3 1920 1028.7 1920 1054.3L1920 1080Z" fill="#a9dcc2"></path><path d="M1727 1080L1713.2 1054.3C1699.3 1028.7 1671.7 977.3 1664.7 925.8C1657.7 874.3 1671.3 822.7 1684 771.2C1696.7 719.7 1708.3 668.3 1713 617C1717.7 565.7 1715.3 514.3 1721.2 463C1727 411.7 1741 360.3 1750.7 308.8C1760.3 257.3 1765.7 205.7 1770.2 154.2C1774.7 102.7 1778.3 51.3 1780.2 25.7L1782 0L1920 0L1920 25.7C1920 51.3 1920 102.7 1920 154.2C1920 205.7 1920 257.3 1920 308.8C1920 360.3 1920 411.7 1920 463C1920 514.3 1920 565.7 1920 617C1920 668.3 1920 719.7 1920 771.2C1920 822.7 1920 874.3 1920 925.8C1920 977.3 1920 1028.7 1920 1054.3L1920 1080Z" fill="#94d2b5"></path></svg>