<svg id="visual" viewBox="0 0 600 900" width="600" height="900" xmlns="http://www.w3.org/2000/svg" xmlns:xlink="http://www.w3.org/1999/xlink" version="1.1"><rect x="0" y="0" width="600" height="900" fill="#e6faed"></rect><path d="M320 900L319.5 878.5C319 857 318 814 316.7 771.2C315.3 728.3 313.7 685.7 314.8 642.8C316 600 320 557 315.3 514.2C310.7 471.3 297.3 428.7 298.5 385.8C299.7 343 315.3 300 324.3 257.2C333.3 214.3 335.7 171.7 326.8 128.8C318 86 298 43 288 21.5L278 0L600 0L600 21.5C600 43 600 86 600 128.8C600 171.7 600 214.3 600 257.2C600 300 600 343 600 385.8C600 428.7 600 471.3 600 514.2C600 557 600 600 600 642.8C600 685.7 600 728.3 600 771.2C600 814 600 857 600 878.5L600 900Z" fill="#e6faed"></path><path d="M312 900L314 878.5C316 857 320 814 321.8 771.2C323.7 728.3 323.3 685.7 324.2 642.8C325 600 327 557 332 514.2C337 471.3 345 428.7 353 385.8C361 343 369 300 365.5 257.2C362 214.3 347 171.7 339.5 128.8C332 86 332 43 332 21.5L332 0L600 0L600 21.5C600 43 600 86 600 128.8C600 171.7 600 214.3 600 257.2C600 300 600 343 600 385.8C600 428.7 600 471.3 600 514.2C600 557 600 600 600 642.8C600 685.7 600 728.3 600 771.2C600 814 600 857 600 878.5L600 900Z" fill="#d2f0de"></path><path d="M405 900L400.3 878.5C395.7 857 386.3 814 392.5 771.2C398.7 728.3 420.3 685.7 420.3 642.8C420.3 600 398.7 557 393.2 514.2C387.7 471.3 398.3 428.7 401.7 385.8C405 343 401 300 397 257.2C393 214.3 389 171.7 396.2 128.8C403.3 86 421.7 43 430.8 21.5L440 0L600 0L600 21.5C600 43 600 86 600 128.8C600 171.7 600 214.3 600 257.2C600 300 600 343 600 385.8C600 428.7 600 471.3 600 514.2C600 557 600 600 600 642.8C600 685.7 600 728.3 600 771.2C600 814 600 857 600 878.5L600 900Z" fill="#bee6d0"></path><path d="M498 900L497.8 878.5C497.7 857 497.3 814 496.2 771.2C495 728.3 493 685.7 493.7 642.8C494.3 600 497.7 557 492.3 514.2C487 471.3 473 428.7 472.7 385.8C472.3 343 485.7 300 487 257.2C488.3 214.3 477.7 171.7 470.8 128.8C464 86 461 43 459.5 21.5L458 0L600 0L600 21.5C600 43 600 86 600 128.8C600 171.7 600 214.3 600 257.2C600 300 600 343 600 385.8C600 428.7 600 471.3 600 514.2C600 557 600 600 600 642.8C600 685.7 600 728.3 600 771.2C600 814 600 857 600 878.5L600 900Z" fill="#a9dcc2"></path><path d="M540 900L535.7 878.5C531.3 857 522.7 814 520.5 771.2C518.3 728.3 522.7 685.7 526.7 642.8C530.7 600 534.3 557 535.8 514.2C537.3 471.3 536.7 428.7 538.5 385.8C540.3 343 544.7 300 547.7 257.2C550.7 214.3 552.3 171.7 553.8 128.8C555.3 86 556.7 43 557.3 21.5L558 0L600 0L600 21.5C600 43 600 86 600 128.8C600 171.7 600 214.3 600 257.2C600 300 600 343 600 385.8C600 428.7 600 471.3 600 514.2C600 557 600 600 600 642.8C600 685.7 600 728.3 600 771.2C600 814 600 857 600 878.5L600 900Z" fill="#94d2b5"></path></svg>