<svg id="visual" viewBox="0 0 1000 900" width="1000" height="900" xmlns="http://www.w3.org/2000/svg" xmlns:xlink="http://www.w3.org/1999/xlink" version="1.1"><rect x="0" y="0" width="1000" height="900" fill="#e6faed"></rect><path d="M532 900L531.2 878.5C530.3 857 528.7 814 526.5 771.2C524.3 728.3 521.7 685.7 523.8 642.8C526 600 533 557 525.3 514.2C517.7 471.3 495.3 428.7 497 385.8C498.7 343 524.3 300 539.2 257.2C554 214.3 558 171.7 543.5 128.8C529 86 496 43 479.5 21.5L463 0L1000 0L1000 21.5C1000 43 1000 86 1000 128.8C1000 171.7 1000 214.3 1000 257.2C1000 300 1000 343 1000 385.8C1000 428.7 1000 471.3 1000 514.2C1000 557 1000 600 1000 642.8C1000 685.7 1000 728.3 1000 771.2C1000 814 1000 857 1000 878.5L1000 900Z" fill="#e6faed"></path><path d="M520 900L523.2 878.5C526.3 857 532.7 814 535.7 771.2C538.7 728.3 538.3 685.7 539.7 642.8C541 600 544 557 552.2 514.2C560.3 471.3 573.7 428.7 587.2 385.8C600.7 343 614.3 300 608.5 257.2C602.7 214.3 577.3 171.7 564.8 128.8C552.3 86 552.7 43 552.8 21.5L553 0L1000 0L1000 21.5C1000 43 1000 86 1000 128.8C1000 171.7 1000 214.3 1000 257.2C1000 300 1000 343 1000 385.8C1000 428.7 1000 471.3 1000 514.2C1000 557 1000 600 1000 642.8C1000 685.7 1000 728.3 1000 771.2C1000 814 1000 857 1000 878.5L1000 900Z" fill="#d2f0de"></path><path d="M675 900L667 878.5C659 857 643 814 653 771.2C663 728.3 699 685.7 699.2 642.8C699.3 600 663.7 557 654.7 514.2C645.7 471.3 663.3 428.7 668.8 385.8C674.3 343 667.7 300 660.8 257.2C654 214.3 647 171.7 659 128.8C671 86 702 43 717.5 21.5L733 0L1000 0L1000 21.5C1000 43 1000 86 1000 128.8C1000 171.7 1000 214.3 1000 257.2C1000 300 1000 343 1000 385.8C1000 428.7 1000 471.3 1000 514.2C1000 557 1000 600 1000 642.8C1000 685.7 1000 728.3 1000 771.2C1000 814 1000 857 1000 878.5L1000 900Z" fill="#bee6d0"></path><path d="M830 900L829.5 878.5C829 857 828 814 825.8 771.2C823.7 728.3 820.3 685.7 821.5 642.8C822.7 600 828.3 557 819.7 514.2C811 471.3 788 428.7 787.7 385.8C787.3 343 809.7 300 811.7 257.2C813.7 214.3 795.3 171.7 783.8 128.8C772.3 86 767.7 43 765.3 21.5L763 0L1000 0L1000 21.5C1000 43 1000 86 1000 128.8C1000 171.7 1000 214.3 1000 257.2C1000 300 1000 343 1000 385.8C1000 428.7 1000 471.3 1000 514.2C1000 557 1000 600 1000 642.8C1000 685.7 1000 728.3 1000 771.2C1000 814 1000 857 1000 878.5L1000 900Z" fill="#a9dcc2"></path><path d="M900 900L892.8 878.5C885.7 857 871.3 814 867.7 771.2C864 728.3 871 685.7 877.5 642.8C884 600 890 557 892.5 514.2C895 471.3 894 428.7 897.2 385.8C900.3 343 907.7 300 912.7 257.2C917.7 214.3 920.3 171.7 922.7 128.8C925 86 927 43 928 21.5L929 0L1000 0L1000 21.5C1000 43 1000 86 1000 128.8C1000 171.7 1000 214.3 1000 257.2C1000 300 1000 343 1000 385.8C1000 428.7 1000 471.3 1000 514.2C1000 557 1000 600 1000 642.8C1000 685.7 1000 728.3 1000 771.2C1000 814 1000 857 1000 878.5L1000 900Z" fill="#94d2b5"></path></svg>